<?xml version="1.0" encoding="UTF-8" standalone="no"?>
<svg xmlns:rdf="http://www.w3.org/1999/02/22-rdf-syntax-ns#" xmlns="http://www.w3.org/2000/svg" version="1.1" xmlns:cc="http://creativecommons.org/ns#" xmlns:dc="http://purl.org/dc/elements/1.1/" viewBox="0 0 1000 1000">
	<g transform="translate(0,-52.362)">
		<path style="color-rendering:auto;text-decoration-color:#000000;color:#000000;isolation:auto;mix-blend-mode:normal;shape-rendering:auto;solid-color:#000000;block-progression:tb;text-decoration-line:none;text-decoration-style:solid;image-rendering:auto;white-space:normal;text-indent:0;text-transform:none" d="m136.16 269.38c-14.883 14.885-14.882 39.016 0 53.902l229.09 229.08-229.09 229.09c-14.883 14.885-14.883 39.016 0 53.902l80.853 80.853c14.885 14.883 39.016 14.882 53.902 0l229.09-229.08 229.08 229.08c14.885 14.883 39.016 14.882 53.902-0.00002l80.853-80.853c14.884-14.884 14.882-39.016 0.00002-53.902l-229.08-229.09 229.09-229.08c14.883-14.885 14.882-39.016 0-53.902l-80.853-80.853c-14.885-14.883-39.016-14.882-53.902 0l-229.09 229.08-229.08-229.09c-14.885-14.883-39.016-14.882-53.902 0z" fill="#111"/>
	</g>
</svg>
