<?xml version="1.0" encoding="UTF-8" standalone="no"?>
<svg xmlns:rdf="http://www.w3.org/1999/02/22-rdf-syntax-ns#" xmlns="http://www.w3.org/2000/svg" version="1.1" xmlns:cc="http://creativecommons.org/ns#" xmlns:dc="http://purl.org/dc/elements/1.1/" viewBox="0 0 150 150">
	<defs>
		<filter id="a" style="color-interpolation-filters:sRGB">
			<feColorMatrix values="0.2 0.2 0.2 0 0 0.2 0.2 0.2 0 0 0.2 0.2 0.2 0 0 0 0 0 1 0 "/>
		</filter>
		<clipPath id="b" clipPathUnits="userSpaceOnUse">
			<path d="m209.2 101.12h24.318v-14.24h-24.318v14.24z"/>
		</clipPath>
	</defs>
	<g transform="translate(0 -902.36)">
		<g filter="url(#a)" transform="matrix(1.625 0 0 -1.625 -280.09 1119.6)">
			<g opacity="0.12" clip-path="url(#b)">
				<g transform="translate(209.2 101.12)">
					<path d="m0 0 21.326-14.24 2.992 1.552l-24.318 12.688z" fill-rule="evenodd" fill="#351516"/>
				</g>
			</g>
		</g>
		<g>
			<path d="m77.26 966.92c-9.481-6.33-17.234-11.51-17.23-11.52 0.0039-0.004 5.1038 2.6505 11.332 5.8996 11.434 5.9647 11.828 6.17 12.241 6.387 0.12597 0.0662 0.38944 0.20363 0.58543 0.30545 0.19599 0.10179 0.45943 0.23933 0.58543 0.30561 0.12597 0.0663 3.4533 1.8016 7.3941 3.8562s7.1738 3.7434 7.1845 3.7529c0.01794 0.0159-4.7855 2.5211-4.8338 2.521-0.0117-0.00003-7.7785-5.1795-17.259-11.51z" fill="#e7e3e4"/>
			<path d="m59.866 975.79c0-16.178 0.07332-20.275 0.35997-20.104 3.5315 2.112 33.905 22.679 33.726 22.838-0.30021 0.26664-33.722 17.585-33.937 17.585-0.08229 0-0.14963-9.1435-0.14963-20.319z" fill="#fff"/>
			<path d="m50.795 1028.4c-30.389-0.7676-35.783-1.6864-41.147-7.0093-3.6902-3.6618-5.711-9.4666-6.6428-19.082-0.76496-7.8936-1.0152-14.025-1.0152-24.876 0-13.689 0.73878-26.029 1.8844-31.475 0.59368-2.8223 2.0013-6.9131 3.0663-8.9112 2.2736-4.2657 6.6976-7.4882 11.89-8.6608 10.045-2.2685 70.504-2.8918 102.23-1.0538 9.189 0.53235 12.574 1.269 15.998 3.4822 6.0265 3.8951 8.7674 9.9877 9.9003 22.007 1.4028 14.882 1.4028 34.34 0 49.223-0.50689 5.3778-0.99663 7.9697-2.1783 11.529-1.551 4.6715-3.4924 7.4918-6.7643 9.8265-4.7462 3.3868-7.4298 3.8264-28.906 4.7346-9.4057 0.3978-46.41 0.5665-58.314 0.2658zm28.96-42.14c10.763-5.58 19.533-10.26 19.489-10.39-0.072-0.21-14.758-7.96-32.97-17.38l-6.4073-3.3161v20.612c0 11.337 0.07176 20.612 0.15935 20.612 0.08762 0 8.9657-4.5636 19.729-10.141z" fill="#111"/>
		</g>
	</g>
</svg>
