<?xml version="1.0" encoding="UTF-8" standalone="no"?>
<svg xmlns:rdf="http://www.w3.org/1999/02/22-rdf-syntax-ns#" xmlns="http://www.w3.org/2000/svg" version="1.1" xmlns:cc="http://creativecommons.org/ns#" xmlns:dc="http://purl.org/dc/elements/1.1/" viewBox="0 0 150 150">
	<defs>
		<clipPath id="a" clipPathUnits="userSpaceOnUse">
			<path d="m209.2 101.12h24.318v-14.24h-24.318v14.24z"/>
		</clipPath>
	</defs>
	<g transform="translate(0 -902.36)">
		<g transform="matrix(1.3 0 0 1.3 -672.78 711.91)">
			<g transform="matrix(1.25 0 0 -1.25 563.6 218.78)">
				<path d="m0 0 24.318 12.6-24.318 12.687v-25.287z" fill="#fff"/>
			</g>
			<g transform="matrix(1.25 0 0 -1.25 302.09 313.57)">
				<g opacity="0.12" clip-path="url(#a)">
					<g transform="translate(209.2 101.12)">
						<path d="m0 0 21.326-14.24 2.992 1.552l-24.318 12.688z" fill-rule="evenodd" fill="#351516"/>
					</g>
				</g>
			</g>
			<g transform="matrix(1.25 0 0 -1.25 563.6 218.78)">
				<path d="m0 0-0.004 25.287 24.318-12.687-24.314-12.6zm53.393 29.668s-0.88 6.202-3.579 8.934c-3.421 3.584-7.258 3.601-9.017 3.811-12.594 0.911-31.486 0.911-31.486 0.911h-0.04s-18.891 0-31.486-0.911c-1.759-0.21-5.594-0.227-9.017-3.811-2.699-2.732-3.577-8.934-3.577-8.934s-0.9-7.283-0.9-14.566v-6.829c0-7.282 0.9-14.565 0.9-14.565s0.878-6.202 3.577-8.934c3.423-3.585 7.92-3.47 9.923-3.846 7.201-0.691 30.6-0.905 30.6-0.905s18.912 0.029 31.506 0.939c1.759 0.21 5.596 0.227 9.017 3.812 2.699 2.732 3.579 8.934 3.579 8.934s0.898 7.283 0.898 14.565v6.829c0 7.283-0.898 14.566-0.898 14.566" fill="#dc1d30"/>
			</g>
		</g>
	</g>
</svg>
