<?xml version="1.0" encoding="UTF-8" standalone="no"?>
<svg xmlns:rdf="http://www.w3.org/1999/02/22-rdf-syntax-ns#" xmlns="http://www.w3.org/2000/svg" version="1.1" xmlns:cc="http://creativecommons.org/ns#" xmlns:dc="http://purl.org/dc/elements/1.1/" viewBox="0 0 112 112">
	<g transform="matrix(.79064 0 0 .78217 -3.2943 -708.46)">
		<path fill="#111" d="m139.5 937.35c-4.7442 2.1054-9.8461 3.5284-15.199 4.1695 5.4634-3.277 9.6583-8.4634 11.635-14.642-5.1132 3.0342-10.776 5.235-16.807 6.4213-4.8254-5.1425-11.704-8.3569-19.317-8.3569-14.618 0-26.466 11.849-26.466 26.466 0 2.0751 0.23188 4.0957 0.68497 6.0315-21.997-1.1023-41.499-11.642-54.553-27.653-2.2783 3.9071-3.5833 8.4529-3.5833 13.304 0 9.1834 4.6705 17.283 11.774 22.031-4.3383-0.13562-8.42-1.3267-11.988-3.3105-0.004 0.11137-0.004 0.2216-0.004 0.3322 0 12.826 9.1242 23.52 21.231 25.953-2.219 0.60494-4.5565 0.92488-6.9705 0.92488-1.7072 0-3.3624-0.16147-4.9812-0.47187 3.3702 10.514 13.143 18.167 24.726 18.381-9.0655 7.0998-20.476 11.329-32.876 11.329-2.1349 0-4.2432-0.1258-6.3154-0.3691 11.718 7.5093 25.628 11.889 40.576 11.889 48.681 0 75.298-40.327 75.298-75.305 0-1.1469-0.0264-2.286-0.0746-3.4211 5.1689-3.7345 9.6555-8.3946 13.206-13.703"/>
	</g>
</svg>
