<?xml version="1.0" encoding="UTF-8" standalone="no"?>
<svg xmlns:rdf="http://www.w3.org/1999/02/22-rdf-syntax-ns#" xmlns="http://www.w3.org/2000/svg" version="1.1" xmlns:cc="http://creativecommons.org/ns#" xmlns:dc="http://purl.org/dc/elements/1.1/" viewBox="0 0 1300 1000">
	<g>
		<path stroke-linejoin="round" d="m600 180-323.44 225h-136.56v94.998l-0.004 0.002 0.004 0.002v94.998h136.56l323.44 225v-640z" stroke="#111" stroke-width="80"/>
	</g>
	<g stroke-linejoin="round" stroke="#111" stroke-linecap="round" stroke-width="120" fill="none">
		<path style="color-rendering:auto;color:#111111;isolation:auto;mix-blend-mode:normal;shape-rendering:auto;solid-color:#111111;image-rendering:auto" d="m1044.4 220.49a323.5 364.87 0 0 1 115.6 279.51 323.5 364.87 0 0 1 -115.6 279.51"/>
		<path style="color-rendering:auto;color:#111111;isolation:auto;mix-blend-mode:normal;shape-rendering:auto;solid-color:#111111;image-rendering:auto" d="m860.59 340.52a163.28 208.18 0 0 1 58.32 159.48 163.28 208.18 0 0 1 -58.32 159.48"/>
	</g>
	<g display="none">
		<path stroke-linejoin="round" d="m880.34 330-40.34 40.34 131.1 131.1-129.66 129.66 37.457 37.457 129.66-129.66 131.1 131.1 40.34-40.34-131.1-131.1 129.66-129.66-37.457-37.457-129.66 129.66-131.1-131.1z" display="inline" stroke="#111" stroke-linecap="round" stroke-width="80"/>
	</g>
</svg>
